<?xml version="1.0" standalone="no"?><!DOCTYPE svg PUBLIC "-//W3C//DTD SVG 1.1//EN" "http://www.w3.org/Graphics/SVG/1.1/DTD/svg11.dtd"><svg t="1506049083032" class="icon" style="" viewBox="0 0 1024 1024" version="1.1" xmlns="http://www.w3.org/2000/svg" p-id="2532" xmlns:xlink="http://www.w3.org/1999/xlink" width="16" height="16"><defs><style type="text/css"></style></defs><path d="M829.943 1002.207 417.674 1002.207l-42.207-98.525c-1.537-4.94-11.787-23.605-13.867-28.165-27.52-57.6-55.04-87.67-90.77-118.76-13.162-9.46-21.602-15.035-26.002-17.055l-21.255-11.81c-52.052-22.615-95.892-38.615-102.6-92.055-0.5-16.325-3.532-56 19.827-94.825 13.735-18.59 37.505-50.615 104.245-50.615 19.49 0 41.69 1.553 64.757 9.615 1.045 0.41 2.17 0.85 3.372 1.32 10.38 4.04 25.895 8.075 44.95 20.435L358.124 251.567c0-42.997 40.345-98.46 98.46-98.46 67.275 0 98.455 55.462 98.455 98.46l0 189.125 273.334 0c16.99 0 43.2 11.737 55.21 23.75 12.015 12.012 23.75 43.347 23.75 60.327l0 242.899-0.255 0.85L829.943 1002.207zM466.801 943.958l313.102 0 64.065-178.049L843.968 555.489c0.005-13.74 3.605-31.755-4.29-39.65-9.71-9.71-18.045-11.785-31.785-11.785L491.679 504.054 491.679 272.047c0-36.292-5.065-55.577-35.092-55.577-21.905 0-35.097 19.285-35.097 55.577l0 355.132c0 0-13.17 4.285-28.91 4.325-14.847 0.04-26.83-16.465-26.83-16.465-14.39-22.4-23.137-25.595-41.27-38.82-1.228-0.48-8.725-5.4-9.792-5.82-19.007-11.68-41.957-16.63-64.522-16.63-33.497 0-53.045 12.845-59.87 27.775-7.68 19.63-6.827 39.255 3.412 55.895 6.152 6.76 26.395 15.66 29.012 17.07 11.485 7.57 33.28 14.93 59.93 31.355 25.987 16.22 49.057 32.545 66.362 55.685 25.952 29.41 49.252 61.42 65.232 96.31 0.665 2.61 3.737 6.81 5.17 11.42L466.801 943.958zM296.592 426.366c-37.565-25.072-83.062-73.087-83.062-175.64 0-122.727 95.59-235.979 235.979-235.979 173.85 0 246.219 118.372 246.219 230.859 0 84.692-29.275 152.025-76.795 180.115l-49.39-44.607c37.21-35.782 57.7-77.877 57.7-130.387 0-85.607-64.685-167.497-172.615-167.497-95.59 0-167.497 95.97-167.497 167.497 0 85.362 27.577 97.755 53.35 125.565L296.592 426.366z" p-id="2533" fill="#ffffff"></path></svg>